inDegrees=yes
name=ik_S53_A05_T01
DataType=double
version=3
OpenSimVersion=4.3-2021-08-27-4bc7ad9
endheader
time	pelvis_tilt	pelvis_list	pelvis_rotation	pelvis_tx	pelvis_ty	pelvis_tz	hip_flexion_r	hip_adduction_r	hip_rotation_r	knee_angle_r	knee_angle_r_beta	ankle_angle_r	subtalar_angle_r	mtp_angle_r	hip_flexion_l	hip_adduction_l	hip_rotation_l	knee_angle_l	knee_angle_l_beta	ankle_angle_l	subtalar_angle_l	mtp_angle_l	lumbar_extension	lumbar_bending	lumbar_rotation	arm_flex_r	arm_add_r	arm_rot_r	elbow_flex_r	pro_sup_r	wrist_flex_r	wrist_dev_r	arm_flex_l	arm_add_l	arm_rot_l	elbow_flex_l	pro_sup_l	wrist_flex_l	wrist_dev_l
23.39999999999959	-4.71827357815817	-2.686962577960327	17.07719627188183	0	0.9399999999999999	0	37.58162276069621	-10.48602024115056	-9.781047550477815	51.88407504766359	0.9055479389335634	0	0	0	37.58162276069621	-10.48602024115056	-9.781047550477815	51.88407504766359	0.9055479389335634	0	0	0	-3.946962137576188	-2.694537545621867	10.64394195015386	36.54218684941494	-8.942444420740783	8.169182028600956	58.56790246244559	98.92037714742061	0	0	25.86893241287621	-3.629973805050262	13.68191186918638	31.60139110902252	113.9206199730847	0	0
23.41999999999959	-4.721832925888596	-2.677162695783942	17.08430819949449	0	0.9399999999999999	0	37.58450926254259	-10.48538548538271	-9.781232861666297	51.88490481044612	0.905562421026129	0	0	0	37.58450926254259	-10.48538548538271	-9.781232861666297	51.88490481044612	0.905562421026129	0	0	0	-3.947503250686094	-2.68434193720968	10.64909347551989	36.51837349958583	-8.920380831034606	8.200712168363456	57.96805742036672	99.40318139998145	0	0	25.90606530913078	-3.595376005679773	13.70883874362117	31.61127875075537	113.9801381164339	0	0
23.43999999999959	-4.653616909537854	-2.6230215144805	16.76315970291084	0	0.9399999999999999	0	37.58668682690933	-10.48489370521106	-9.781375151146715	51.88551439101982	0.9055730602141964	0	0	0	37.58668682690933	-10.48489370521106	-9.781375151146715	51.88551439101982	0.9055730602141964	0	0	0	-3.865968138688334	-2.6530542410425	10.66850781310971	35.23030313580247	-9.366898476504121	7.909255810846351	58.00368909403213	100.1112384831388	0	0	25.77292439564691	-3.678652004095929	13.41886178705908	31.62135736106542	113.9890209668612	0	0
23.45999999999959	-4.620726140661719	-2.610140326206508	16.39777913319361	0	0.9399999999999999	0	37.59132325622029	-10.48384282238124	-9.781678890991227	51.88680646658702	0.9055956111870287	0	0	0	37.59132325622029	-10.48384282238124	-9.781678890991227	51.88680646658702	0.9055956111870287	0	0	0	-3.821801849154569	-2.664199348980234	10.88036069938016	33.20248096174424	-10.43108757868814	6.511074554165287	59.65385121049523	100.7756058970995	0	0	25.76273762763228	-3.737087947151959	13.25347793515459	31.59704031533392	114.0142236492559	0	0
23.47999999999959	-4.585514752755374	-2.575317023642785	16.19676660735351	0	0.9399999999999999	0	37.59382593381602	-10.48327792808929	-9.781842428318622	51.88750608906867	0.9056078219028545	0	0	0	37.59382593381602	-10.48327792808929	-9.781842428318622	51.88750608906867	0.9056078219028545	0	0	0	-3.775341484817484	-2.645701876723383	10.95294522032616	32.24949820538238	-10.84595632121874	5.934709366261122	59.53813096635242	101.3724076399629	0	0	25.68978350789545	-3.746603610250938	13.09436986836588	31.58994437077482	114.0553071156153	0	0
23.49999999999959	-4.562741320421384	-2.582213005390062	16.01816226106102	0	0.9399999999999999	0	37.59763383353886	-10.48243667168656	-9.782087808509587	51.88859211560883	0.9056267766417442	0	0	0	37.59763383353886	-10.48243667168656	-9.782087808509587	51.88859211560883	0.9056267766417442	0	0	0	-3.75474301685004	-2.662311592241427	11.00719480232902	32.21995430432233	-10.61223135568564	5.935735613101913	57.80555014189338	102.8571508720991	0	0	25.7203787641892	-3.816666310580133	12.95593779217233	31.55669279067855	114.1174686745793	0	0
23.51999999999959	-4.531651871694726	-2.541471080274204	15.71880528030078	0	0.9399999999999999	0	37.6006366404935	-10.48176039201145	-9.782283812071364	51.88943182232729	0.9056414322887325	0	0	0	37.6006366404935	-10.48176039201145	-9.782283812071364	51.88943182232729	0.9056414322887325	0	0	0	-3.704590919005272	-2.643520470737023	11.19454536892109	30.39417279962608	-11.42090188283958	4.878860289214922	59.53420356445775	103.2364049532577	0	0	25.65360595999561	-3.792790460122637	12.78471090369666	31.57789798928046	114.1371967025004	0	0
23.53999999999959	-4.506230769458065	-2.516484169272954	15.53316296847748	0	0.9399999999999999	0	37.60455697382191	-10.48087894447385	-9.782539471686292	51.89052889241221	0.9056605797738394	0	0	0	37.60455697382191	-10.48087894447385	-9.782539471686292	51.89052889241221	0.9056605797738394	0	0	0	-3.670714183932406	-2.631896895320908	11.27739308622837	29.32511298697774	-11.60185343175986	4.5489982393644	58.46257343964188	105.0026967295716	0	0	25.63011291076105	-3.7963872353182	12.6438480417424	31.59806983199287	114.1765795749724	0	0
23.55999999999959	-4.488202723603003	-2.512829908553961	15.42457234489804	0	0.9399999999999999	0	37.60697120645184	-10.4803395329029	-9.782696287981439	51.89120810743033	0.9056724343122347	0	0	0	37.60697120645184	-10.4803395329029	-9.782696287981439	51.89120810743033	0.9056724343122347	0	0	0	-3.650886087781522	-2.635482131035964	11.32262067014782	28.2054051609861	-11.78686238719965	4.378757935973904	59.40833493908402	105.1708894650979	0	0	25.62558068997044	-3.829227454274212	12.56843956641457	31.56902857733936	114.1873188097947	0	0
23.57999999999959	-4.474615801371344	-2.508120589029756	15.31615138670439	0	0.9399999999999999	0	37.61027815686874	-10.47960048181605	-9.782911160264749	51.89213749535926	0.9056886551916228	0	0	0	37.61027815686874	-10.47960048181605	-9.782911160264749	51.89213749535926	0.9056886551916228	0	0	0	-3.633717729069934	-2.639737064172692	11.39948257772044	26.90436164252484	-12.00114454832918	4.075722873863236	60.08163850120496	106.9809102790967	0	0	25.6232194265611	-3.850046606717551	12.51687415177301	31.58811971307423	114.2189552133854	0	0
23.59999999999959	-4.45287186926514	-2.503004761152482	15.28904299359797	0	0.9399999999999999	0	37.6154828949111	-10.47844292837321	-9.783248335305274	51.89360567736524	0.9057142798016458	0	0	0	37.6154828949111	-10.47844292837321	-9.783248335305274	51.89360567736524	0.9057142798016458	0	0	0	-3.611529822624937	-2.640627805988343	11.40190081444149	26.90251346341991	-12.02754942008085	3.97888497047234	59.89196134451619	108.942174931336	0	0	25.58806351260845	-3.890480931870682	12.4864344075795	31.60740350462464	114.2022576643439	0	0
23.61999999999959	-4.447885126290371	-2.479288619195482	15.06088929383839	0	0.9399999999999999	0	37.61830458365097	-10.4778132734237	-9.783431582568905	51.89439796052757	0.9057281077514364	0	0	0	37.61830458365097	-10.4778132734237	-9.783431582568905	51.89439796052757	0.9057281077514364	0	0	0	-3.592128895139906	-2.634492037328438	11.60447635055039	24.94826757291518	-12.0975305639737	2.897194756660163	61.35573022940059	110.0397372669397	0	0	25.6286115157462	-3.865234120401444	12.3552269925249	31.55743556604934	114.2788976305877	0	0
23.63999999999958	-4.426016644360225	-2.443582980792994	14.93689497434572	0	0.9399999999999999	0	37.62066015569054	-10.47728685521635	-9.783584726010217	51.89505801956859	0.9057396279549599	0	0	0	37.62066015569054	-10.47728685521635	-9.783584726010217	51.89505801956859	0.9057396279549599	0	0	0	-3.557800251236488	-2.612804558792662	11.70767425233455	24.20686152277825	-12.08141239064395	2.088141808794891	61.30488271770592	110.2027785837282	0	0	25.5758417717423	-3.857274723239978	12.23147698505755	31.55094249310276	114.3249232167597	0	0
23.65999999999958	-4.395663643695448	-2.3964598012165	14.93138783081666	0	0.9399999999999999	0	37.62224257829189	-10.47694758276395	-9.783684851008207	51.8955191614088	0.9057476763983902	0	0	0	37.62224257829189	-10.47694758276395	-9.783684851008207	51.8955191614088	0.9057476763983902	0	0	0	-3.516729849050316	-2.574620105998606	11.70269277339021	24.07681803836814	-12.06956919782688	2.107019426009209	60.77258996924332	109.9469750153413	0	0	25.47470258190374	-3.845897792215621	12.13873010148684	31.54050451719095	114.3552361386498	0	0
